<svg xmlns="http://www.w3.org/2000/svg" xmlns:xlink="http://www.w3.org/1999/xlink" width="500" zoomAndPan="magnify" viewBox="0 0 375 374.999991" height="500" preserveAspectRatio="xMidYMid meet" version="1.0"><defs><g/></defs><g fill="#d9d9d9" fill-opacity="1"><g transform="translate(89.786111, 158.305938)"><g><path d="M 16.53125 -35.640625 C 20 -35.640625 22.671875 -34.628906 24.546875 -32.609375 C 26.429688 -30.585938 27.375 -27.722656 27.375 -24.015625 C 27.375 -20.640625 26.53125 -17.976562 24.84375 -16.03125 C 23.15625 -14.082031 20.742188 -12.941406 17.609375 -12.609375 L 11.46875 -12.609375 L 11.46875 0 L 2 0 L 2 -35.640625 Z M 15.75 -21.09375 C 17.882812 -21.09375 18.953125 -22.066406 18.953125 -24.015625 C 18.953125 -25.921875 17.882812 -26.921875 15.75 -27.015625 L 11.46875 -27.015625 L 11.46875 -21.09375 Z M 15.75 -21.09375 "/></g></g></g><g fill="#d9d9d9" fill-opacity="1"><g transform="translate(116.831574, 158.305938)"><g/></g></g><g fill="#d9d9d9" fill-opacity="1"><g transform="translate(123.565984, 158.305938)"><g><path d="M 15.25 0.5 C 10.925781 0.5 7.578125 -1.085938 5.203125 -4.265625 C 2.828125 -7.453125 1.640625 -11.96875 1.640625 -17.8125 C 1.640625 -23.65625 2.828125 -28.171875 5.203125 -31.359375 C 7.578125 -34.546875 10.925781 -36.140625 15.25 -36.140625 C 19.625 -36.140625 23 -34.546875 25.375 -31.359375 C 27.75 -28.171875 28.9375 -23.65625 28.9375 -17.8125 C 28.9375 -11.96875 27.75 -7.453125 25.375 -4.265625 C 23 -1.085938 19.625 0.5 15.25 0.5 Z M 15.328125 -8.984375 C 16.703125 -8.984375 17.753906 -9.742188 18.484375 -11.265625 C 19.222656 -12.785156 19.617188 -14.96875 19.671875 -17.8125 C 19.617188 -20.664062 19.222656 -22.851562 18.484375 -24.375 C 17.753906 -25.894531 16.703125 -26.65625 15.328125 -26.65625 C 13.898438 -26.65625 12.804688 -25.894531 12.046875 -24.375 C 11.285156 -22.851562 10.90625 -20.664062 10.90625 -17.8125 C 10.90625 -14.96875 11.285156 -12.785156 12.046875 -11.265625 C 12.804688 -9.742188 13.898438 -8.984375 15.328125 -8.984375 Z M 15.328125 -8.984375 "/></g></g></g><g fill="#d9d9d9" fill-opacity="1"><g transform="translate(152.393117, 158.305938)"><g/></g></g><g fill="#d9d9d9" fill-opacity="1"><g transform="translate(159.127529, 158.305938)"><g><path d="M 27.15625 -26.234375 L 19.25 -26.234375 L 19.25 0 L 9.765625 0 L 9.765625 -26.234375 L 1.78125 -26.234375 L 1.78125 -35.640625 L 27.15625 -35.640625 Z M 27.15625 -26.234375 "/></g></g></g><g fill="#d9d9d9" fill-opacity="1"><g transform="translate(186.315531, 158.305938)"><g/></g></g><g fill="#d9d9d9" fill-opacity="1"><g transform="translate(193.049944, 158.305938)"><g><path d="M 11.46875 -27.015625 L 11.46875 -22.015625 L 24.15625 -22.015625 L 24.15625 -13.609375 L 11.46875 -13.609375 L 11.46875 -8.625 L 24.15625 -8.625 L 24.15625 0 L 2 0 L 2 -35.640625 L 24.15625 -35.640625 L 24.15625 -27.015625 Z M 11.46875 -27.015625 "/></g></g></g><g fill="#d9d9d9" fill-opacity="1"><g transform="translate(217.458531, 158.305938)"><g/></g></g><g fill="#d9d9d9" fill-opacity="1"><g transform="translate(224.192943, 158.305938)"><g><path d="M 2 0 L 2 -35.640625 L 9.90625 -35.640625 L 17.890625 -19.03125 L 17.890625 -35.640625 L 27.375 -35.640625 L 27.375 0 L 19.453125 0 L 11.46875 -16.671875 L 11.46875 0 Z M 2 0 "/></g></g></g><g fill="#d9d9d9" fill-opacity="1"><g transform="translate(251.879804, 158.305938)"><g/></g></g><g fill="#d9d9d9" fill-opacity="1"><g transform="translate(258.614217, 158.305938)"><g><path d="M 14.96875 0.421875 C 19.289062 0.472656 22.613281 -0.398438 24.9375 -2.203125 C 27.269531 -4.015625 28.4375 -6.628906 28.4375 -10.046875 C 28.4375 -11.953125 27.992188 -13.554688 27.109375 -14.859375 C 26.234375 -16.160156 25.109375 -17.265625 23.734375 -18.171875 C 22.359375 -19.078125 20.882812 -19.847656 19.3125 -20.484375 C 17.75 -21.128906 16.273438 -21.6875 14.890625 -22.15625 C 13.515625 -22.632812 12.382812 -23.097656 11.5 -23.546875 C 10.625 -24.003906 10.1875 -24.519531 10.1875 -25.09375 C 10.1875 -26.707031 11.6875 -27.515625 14.6875 -27.515625 C 16.0625 -27.515625 17.195312 -27.117188 18.09375 -26.328125 C 19 -25.546875 19.597656 -24.421875 19.890625 -22.953125 L 27.71875 -25.296875 C 26.957031 -28.816406 25.460938 -31.503906 23.234375 -33.359375 C 21.003906 -35.210938 18.15625 -36.140625 14.6875 -36.140625 C 10.363281 -36.140625 7.046875 -35.234375 4.734375 -33.421875 C 2.429688 -31.617188 1.28125 -29.03125 1.28125 -25.65625 C 1.28125 -23.800781 1.71875 -22.21875 2.59375 -20.90625 C 3.476562 -19.601562 4.609375 -18.515625 5.984375 -17.640625 C 7.359375 -16.765625 8.816406 -16.03125 10.359375 -15.4375 C 11.910156 -14.84375 13.375 -14.304688 14.75 -13.828125 C 16.125 -13.347656 17.25 -12.859375 18.125 -12.359375 C 19.007812 -11.867188 19.453125 -11.289062 19.453125 -10.625 C 19.453125 -9.050781 17.957031 -8.265625 14.96875 -8.265625 C 13.632812 -8.265625 12.523438 -8.65625 11.640625 -9.4375 C 10.765625 -10.226562 10.140625 -11.3125 9.765625 -12.6875 L 2 -10.328125 C 2.757812 -6.859375 4.253906 -4.1875 6.484375 -2.3125 C 8.710938 -0.4375 11.539062 0.472656 14.96875 0.421875 Z M 14.96875 0.421875 "/></g></g></g><g fill="#000000" fill-opacity="1"><g transform="translate(35.311626, 161.755713)"><g><path d="M 35.734375 -21.328125 C 36.078125 -21.179688 36.359375 -20.898438 36.578125 -20.484375 C 36.796875 -20.066406 36.851562 -19.710938 36.75 -19.421875 C 36.644531 -19.128906 36.304688 -19.101562 35.734375 -19.34375 C 34.109375 -20 32.398438 -20.421875 30.609375 -20.609375 C 28.816406 -20.804688 27.015625 -20.878906 25.203125 -20.828125 C 23.398438 -20.785156 21.632812 -20.75 19.90625 -20.71875 C 19.414062 -20.71875 18.914062 -20.710938 18.40625 -20.703125 C 17.894531 -20.691406 17.394531 -20.671875 16.90625 -20.640625 C 17.132812 -20.429688 17.3125 -20.191406 17.4375 -19.921875 C 17.570312 -19.648438 17.582031 -19.410156 17.46875 -19.203125 C 15.445312 -15.242188 13.753906 -11.125 12.390625 -6.84375 C 11.035156 -2.570312 10.070312 1.773438 9.5 6.203125 C 9.4375 6.546875 9.28125 6.734375 9.03125 6.765625 C 8.789062 6.796875 8.519531 6.71875 8.21875 6.53125 C 7.914062 6.34375 7.65625 6.109375 7.4375 5.828125 C 7.21875 5.554688 7.125 5.289062 7.15625 5.03125 C 7.757812 0.582031 8.722656 -3.789062 10.046875 -8.09375 C 11.378906 -12.40625 13.070312 -16.570312 15.125 -20.59375 C 11.082031 -20.476562 7.035156 -20.257812 2.984375 -19.9375 C 2.722656 -19.914062 2.457031 -20.007812 2.1875 -20.21875 C 1.914062 -20.4375 1.6875 -20.695312 1.5 -21 C 1.3125 -21.3125 1.226562 -21.585938 1.25 -21.828125 C 1.28125 -22.078125 1.472656 -22.21875 1.828125 -22.25 C 4.796875 -22.476562 7.773438 -22.65625 10.765625 -22.78125 C 13.765625 -22.914062 16.765625 -23 19.765625 -23.03125 C 21.535156 -23.050781 23.328125 -23.0625 25.140625 -23.0625 C 26.960938 -23.0625 28.753906 -22.945312 30.515625 -22.71875 C 32.285156 -22.488281 34.023438 -22.023438 35.734375 -21.328125 Z M 35.734375 -21.328125 "/></g></g></g><g fill="#000000" fill-opacity="1"><g transform="translate(54.254572, 161.755713)"><g><path d="M 20.203125 -5.640625 C 20.492188 -5.785156 20.78125 -5.753906 21.0625 -5.546875 C 21.351562 -5.347656 21.539062 -5.085938 21.625 -4.765625 C 21.71875 -4.453125 21.578125 -4.191406 21.203125 -3.984375 C 19.898438 -3.234375 18.566406 -2.4375 17.203125 -1.59375 C 15.847656 -0.757812 14.445312 -0.0976562 13 0.390625 C 12.195312 0.648438 11.40625 0.597656 10.625 0.234375 C 9.84375 -0.117188 9.410156 -0.773438 9.328125 -1.734375 C 9.296875 -2.171875 9.335938 -2.613281 9.453125 -3.0625 C 9.566406 -3.507812 9.695312 -3.929688 9.84375 -4.328125 C 9.957031 -4.617188 10.070312 -4.910156 10.1875 -5.203125 C 10.300781 -5.492188 10.40625 -5.78125 10.5 -6.0625 C 6.96875 -4.101562 3.84375 -1.617188 1.125 1.390625 C 0.976562 1.554688 0.769531 1.585938 0.5 1.484375 C 0.226562 1.390625 0.0195312 1.285156 -0.125 1.171875 C -1.082031 0.453125 -1.5625 -0.359375 -1.5625 -1.265625 C -1.5625 -2.179688 -1.390625 -3.160156 -1.046875 -4.203125 C -0.148438 -6.691406 0.832031 -9.148438 1.90625 -11.578125 C 3.007812 -14.035156 4.21875 -16.441406 5.53125 -18.796875 C 6.84375 -21.148438 8.238281 -23.441406 9.71875 -25.671875 C 9.851562 -25.898438 10.066406 -25.96875 10.359375 -25.875 C 10.648438 -25.789062 10.925781 -25.617188 11.1875 -25.359375 C 11.445312 -25.097656 11.640625 -24.804688 11.765625 -24.484375 C 11.898438 -24.171875 11.894531 -23.898438 11.75 -23.671875 C 9.207031 -19.859375 6.96875 -15.914062 5.03125 -11.84375 C 4.070312 -9.8125 3.175781 -7.742188 2.34375 -5.640625 C 2 -4.742188 1.648438 -3.800781 1.296875 -2.8125 C 2.398438 -3.820312 3.539062 -4.757812 4.71875 -5.625 C 5.90625 -6.5 7.132812 -7.3125 8.40625 -8.0625 C 9.039062 -8.4375 9.65625 -8.695312 10.25 -8.84375 C 10.84375 -8.988281 11.441406 -8.785156 12.046875 -8.234375 C 12.546875 -7.773438 12.828125 -7.25 12.890625 -6.65625 C 12.960938 -6.0625 12.929688 -5.460938 12.796875 -4.859375 C 12.703125 -4.367188 12.5625 -3.890625 12.375 -3.421875 C 12.1875 -2.960938 12.019531 -2.5 11.875 -2.03125 C 13.269531 -2.46875 14.695312 -2.992188 16.15625 -3.609375 C 17.613281 -4.234375 18.960938 -4.910156 20.203125 -5.640625 Z M 20.203125 -5.640625 "/></g></g></g><g fill="#000000" fill-opacity="1"><g transform="translate(74.671346, 161.755713)"><g><path d="M 11.265625 -5.421875 C 11.554688 -5.648438 11.875 -5.6875 12.21875 -5.53125 C 12.570312 -5.375 12.820312 -5.132812 12.96875 -4.8125 C 13.113281 -4.488281 13.039062 -4.242188 12.75 -4.078125 C 11.039062 -2.953125 9.28125 -1.8125 7.46875 -0.65625 C 5.664062 0.5 3.796875 1.425781 1.859375 2.125 C 1.140625 2.382812 0.4375 2.492188 -0.25 2.453125 C -0.945312 2.410156 -1.554688 2.054688 -2.078125 1.390625 C -2.597656 0.691406 -2.78125 -0.0820312 -2.625 -0.9375 C -2.46875 -1.789062 -2.140625 -2.601562 -1.640625 -3.375 C -1.148438 -4.15625 -0.660156 -4.804688 -0.171875 -5.328125 C 0.265625 -5.816406 0.785156 -6.265625 1.390625 -6.671875 C 1.992188 -7.078125 2.617188 -7.304688 3.265625 -7.359375 C 3.921875 -7.421875 4.523438 -7.148438 5.078125 -6.546875 C 5.566406 -6.054688 5.765625 -5.5625 5.671875 -5.0625 C 5.585938 -4.570312 5.320312 -4.117188 4.875 -3.703125 C 4.425781 -3.285156 3.898438 -2.898438 3.296875 -2.546875 C 2.691406 -2.203125 2.101562 -1.898438 1.53125 -1.640625 C 0.96875 -1.378906 0.53125 -1.164062 0.21875 -1 C 0.0703125 -0.675781 -0.0390625 -0.359375 -0.125 -0.046875 C 0.507812 -0.128906 1.332031 -0.359375 2.34375 -0.734375 C 3.351562 -1.109375 4.425781 -1.570312 5.5625 -2.125 C 6.707031 -2.675781 7.785156 -3.238281 8.796875 -3.8125 C 9.804688 -4.394531 10.628906 -4.929688 11.265625 -5.421875 Z M 11.265625 -5.421875 "/></g></g></g><g fill="#000000" fill-opacity="1"><g transform="translate(86.158489, 161.755713)"><g/></g></g><g fill="#000000" fill-opacity="1"><g transform="translate(102.500582, 161.755713)"><g><path d="M 28.09375 -21.15625 C 29.28125 -19.769531 29.953125 -18.242188 30.109375 -16.578125 C 30.265625 -14.921875 30.046875 -13.28125 29.453125 -11.65625 C 28.867188 -10.039062 28.054688 -8.566406 27.015625 -7.234375 C 26.148438 -6.171875 25.179688 -5.203125 24.109375 -4.328125 C 23.035156 -3.460938 21.894531 -2.710938 20.6875 -2.078125 C 19.675781 -1.523438 18.5625 -1.03125 17.34375 -0.59375 C 16.125 -0.164062 14.925781 -0.0546875 13.75 -0.265625 C 12.757812 -0.410156 11.921875 -0.859375 11.234375 -1.609375 C 10.335938 1.660156 9.628906 4.957031 9.109375 8.28125 C 9.046875 8.539062 8.890625 8.65625 8.640625 8.625 C 8.398438 8.59375 8.132812 8.46875 7.84375 8.25 C 7.5625 8.039062 7.316406 7.785156 7.109375 7.484375 C 6.910156 7.179688 6.820312 6.898438 6.84375 6.640625 C 8.289062 -2.179688 10.894531 -10.65625 14.65625 -18.78125 C 14.769531 -19.0625 14.960938 -19.179688 15.234375 -19.140625 C 15.515625 -19.097656 15.796875 -18.960938 16.078125 -18.734375 C 16.367188 -18.503906 16.601562 -18.242188 16.78125 -17.953125 C 16.957031 -17.660156 16.984375 -17.398438 16.859375 -17.171875 C 15.796875 -14.828125 14.816406 -12.425781 13.921875 -9.96875 C 14.296875 -10.257812 14.695312 -10.519531 15.125 -10.75 C 15.332031 -10.863281 15.578125 -10.847656 15.859375 -10.703125 C 16.148438 -10.566406 16.410156 -10.351562 16.640625 -10.0625 C 16.878906 -9.769531 17.023438 -9.476562 17.078125 -9.1875 C 17.140625 -8.90625 17.023438 -8.675781 16.734375 -8.5 C 15.804688 -8.007812 14.910156 -7.289062 14.046875 -6.34375 C 13.179688 -5.40625 12.660156 -4.390625 12.484375 -3.296875 C 12.429688 -2.953125 12.453125 -2.734375 12.546875 -2.640625 C 12.648438 -2.554688 12.863281 -2.5 13.1875 -2.46875 C 13.414062 -2.46875 13.648438 -2.472656 13.890625 -2.484375 C 14.140625 -2.503906 14.378906 -2.539062 14.609375 -2.59375 C 15.128906 -2.71875 15.632812 -2.863281 16.125 -3.03125 C 16.613281 -3.207031 17.09375 -3.394531 17.5625 -3.59375 C 19.40625 -4.40625 21.128906 -5.5 22.734375 -6.875 C 24.335938 -8.25 25.601562 -9.832031 26.53125 -11.625 C 26.96875 -12.457031 27.304688 -13.359375 27.546875 -14.328125 C 27.796875 -15.296875 27.890625 -16.253906 27.828125 -17.203125 C 27.773438 -18.160156 27.503906 -19.035156 27.015625 -19.828125 C 26.523438 -20.628906 25.773438 -21.257812 24.765625 -21.71875 C 23.429688 -22.351562 22.023438 -22.632812 20.546875 -22.5625 C 19.078125 -22.488281 17.617188 -22.210938 16.171875 -21.734375 C 14.722656 -21.265625 13.378906 -20.753906 12.140625 -20.203125 C 11.179688 -19.773438 10.269531 -19.289062 9.40625 -18.75 C 8.539062 -18.21875 7.703125 -17.617188 6.890625 -16.953125 C 6.085938 -16.253906 5.378906 -15.53125 4.765625 -14.78125 C 4.617188 -14.613281 4.472656 -14.425781 4.328125 -14.21875 C 4.191406 -14.019531 4.050781 -13.816406 3.90625 -13.609375 C 3.875 -13.523438 3.769531 -13.335938 3.59375 -13.046875 C 3.425781 -12.765625 3.351562 -12.609375 3.375 -12.578125 C 3.695312 -12.054688 3.765625 -11.6875 3.578125 -11.46875 C 3.390625 -11.25 3.097656 -11.179688 2.703125 -11.265625 C 2.316406 -11.359375 1.992188 -11.609375 1.734375 -12.015625 C 1.210938 -12.878906 1.097656 -13.726562 1.390625 -14.5625 C 1.679688 -15.40625 2.15625 -16.191406 2.8125 -16.921875 C 3.476562 -17.660156 4.113281 -18.304688 4.71875 -18.859375 C 5.90625 -19.867188 7.1875 -20.734375 8.5625 -21.453125 C 9.9375 -22.179688 11.332031 -22.820312 12.75 -23.375 C 14.476562 -24.007812 16.273438 -24.429688 18.140625 -24.640625 C 20.003906 -24.859375 21.800781 -24.710938 23.53125 -24.203125 C 25.269531 -23.703125 26.789062 -22.6875 28.09375 -21.15625 Z M 28.09375 -21.15625 "/></g></g></g><g fill="#000000" fill-opacity="1"><g transform="translate(133.92767, 161.755713)"><g><path d="M 5.078125 -5.71875 C 5.191406 -4.59375 5.09375 -3.488281 4.78125 -2.40625 C 4.476562 -1.320312 3.984375 -0.347656 3.296875 0.515625 C 2.660156 1.359375 1.882812 1.898438 0.96875 2.140625 C 0.0625 2.390625 -0.796875 2.066406 -1.609375 1.171875 C -2.328125 0.359375 -2.628906 -0.519531 -2.515625 -1.46875 C -2.398438 -2.425781 -2.023438 -3.351562 -1.390625 -4.25 C -0.753906 -5.144531 -0.0195312 -5.945312 0.8125 -6.65625 C 1.65625 -7.363281 2.425781 -7.890625 3.125 -8.234375 C 3.414062 -8.378906 3.738281 -8.320312 4.09375 -8.0625 C 4.457031 -7.800781 4.738281 -7.472656 4.9375 -7.078125 C 5.144531 -6.691406 5.144531 -6.382812 4.9375 -6.15625 C 5 -6.007812 5.046875 -5.863281 5.078125 -5.71875 Z M 2.125 -2.8125 C 2.382812 -3.394531 2.570312 -4.003906 2.6875 -4.640625 C 2.25 -4.265625 1.859375 -3.859375 1.515625 -3.421875 C 1.078125 -2.867188 0.71875 -2.273438 0.4375 -1.640625 C 0.34375 -1.503906 0.265625 -1.363281 0.203125 -1.21875 C 0.148438 -1.070312 0.0976562 -0.925781 0.046875 -0.78125 C 0.046875 -0.75 0.0351562 -0.675781 0.015625 -0.5625 C 0.00390625 -0.445312 -0.015625 -0.347656 -0.046875 -0.265625 C 0.128906 -0.410156 0.296875 -0.53125 0.453125 -0.625 C 0.609375 -0.726562 0.757812 -0.851562 0.90625 -1 C 1.394531 -1.550781 1.800781 -2.15625 2.125 -2.8125 Z M 2.125 -2.8125 "/></g></g></g><g fill="#000000" fill-opacity="1"><g transform="translate(141.947002, 161.755713)"><g><path d="M 11.75 -9.453125 C 11.832031 -9.742188 12.003906 -9.875 12.265625 -9.84375 C 12.523438 -9.8125 12.800781 -9.679688 13.09375 -9.453125 C 13.382812 -9.222656 13.625 -8.953125 13.8125 -8.640625 C 14 -8.335938 14.0625 -8.070312 14 -7.84375 C 13.425781 -5.820312 12.632812 -3.957031 11.625 -2.25 C 11.382812 -1.820312 11.09375 -1.320312 10.75 -0.75 C 10.40625 -0.1875 10.007812 0.316406 9.5625 0.765625 C 9.113281 1.210938 8.613281 1.460938 8.0625 1.515625 C 7.25 1.628906 6.566406 1.359375 6.015625 0.703125 C 5.472656 0.0546875 5.1875 -0.625 5.15625 -1.34375 C 5.125 -1.863281 5.140625 -2.398438 5.203125 -2.953125 C 4.828125 -2.597656 4.457031 -2.234375 4.09375 -1.859375 C 3.738281 -1.484375 3.367188 -1.109375 2.984375 -0.734375 C 2.671875 -0.390625 2.289062 0.0078125 1.84375 0.46875 C 1.394531 0.9375 0.910156 1.328125 0.390625 1.640625 C -0.128906 1.960938 -0.664062 2.082031 -1.21875 2 C -2.019531 1.882812 -2.566406 1.445312 -2.859375 0.6875 C -3.148438 -0.0625 -3.207031 -0.78125 -3.03125 -1.46875 C -2.769531 -2.394531 -2.375 -3.289062 -1.84375 -4.15625 C -1.3125 -5.03125 -0.726562 -5.84375 -0.09375 -6.59375 C 0.0820312 -6.789062 0.316406 -6.835938 0.609375 -6.734375 C 0.898438 -6.640625 1.179688 -6.460938 1.453125 -6.203125 C 1.722656 -5.941406 1.910156 -5.660156 2.015625 -5.359375 C 2.117188 -5.054688 2.082031 -4.785156 1.90625 -4.546875 C 1.5625 -4.148438 1.226562 -3.722656 0.90625 -3.265625 C 0.59375 -2.816406 0.304688 -2.347656 0.046875 -1.859375 C 0.046875 -1.835938 0 -1.738281 -0.09375 -1.5625 C 0.226562 -1.851562 0.539062 -2.171875 0.84375 -2.515625 C 1.144531 -2.859375 1.441406 -3.175781 1.734375 -3.46875 C 2.453125 -4.21875 3.1875 -4.972656 3.9375 -5.734375 C 4.695312 -6.503906 5.4375 -7.265625 6.15625 -8.015625 C 6.445312 -8.304688 6.765625 -8.34375 7.109375 -8.125 C 7.453125 -7.90625 7.75 -7.59375 8 -7.1875 C 8.25 -6.789062 8.34375 -6.460938 8.28125 -6.203125 C 8.164062 -5.617188 8.054688 -5.046875 7.953125 -4.484375 C 7.847656 -3.921875 7.753906 -3.351562 7.671875 -2.78125 C 7.671875 -2.632812 7.632812 -2.398438 7.5625 -2.078125 C 7.488281 -1.765625 7.441406 -1.429688 7.421875 -1.078125 C 7.734375 -1.367188 8.0625 -1.773438 8.40625 -2.296875 C 8.757812 -2.816406 9.066406 -3.304688 9.328125 -3.765625 C 9.585938 -4.234375 9.757812 -4.523438 9.84375 -4.640625 C 10.25 -5.421875 10.609375 -6.207031 10.921875 -7 C 11.242188 -7.789062 11.519531 -8.609375 11.75 -9.453125 Z M 11.75 -9.453125 "/></g></g></g><g fill="#000000" fill-opacity="1"><g transform="translate(158.289095, 161.755713)"><g><path d="M 11.265625 -5.421875 C 11.554688 -5.648438 11.875 -5.6875 12.21875 -5.53125 C 12.570312 -5.375 12.820312 -5.132812 12.96875 -4.8125 C 13.113281 -4.488281 13.039062 -4.242188 12.75 -4.078125 C 11.039062 -2.953125 9.28125 -1.8125 7.46875 -0.65625 C 5.664062 0.5 3.796875 1.425781 1.859375 2.125 C 1.140625 2.382812 0.4375 2.492188 -0.25 2.453125 C -0.945312 2.410156 -1.554688 2.054688 -2.078125 1.390625 C -2.597656 0.691406 -2.78125 -0.0820312 -2.625 -0.9375 C -2.46875 -1.789062 -2.140625 -2.601562 -1.640625 -3.375 C -1.148438 -4.15625 -0.660156 -4.804688 -0.171875 -5.328125 C 0.265625 -5.816406 0.785156 -6.265625 1.390625 -6.671875 C 1.992188 -7.078125 2.617188 -7.304688 3.265625 -7.359375 C 3.921875 -7.421875 4.523438 -7.148438 5.078125 -6.546875 C 5.566406 -6.054688 5.765625 -5.5625 5.671875 -5.0625 C 5.585938 -4.570312 5.320312 -4.117188 4.875 -3.703125 C 4.425781 -3.285156 3.898438 -2.898438 3.296875 -2.546875 C 2.691406 -2.203125 2.101562 -1.898438 1.53125 -1.640625 C 0.96875 -1.378906 0.53125 -1.164062 0.21875 -1 C 0.0703125 -0.675781 -0.0390625 -0.359375 -0.125 -0.046875 C 0.507812 -0.128906 1.332031 -0.359375 2.34375 -0.734375 C 3.351562 -1.109375 4.425781 -1.570312 5.5625 -2.125 C 6.707031 -2.675781 7.785156 -3.238281 8.796875 -3.8125 C 9.804688 -4.394531 10.628906 -4.929688 11.265625 -5.421875 Z M 11.265625 -5.421875 "/></g></g></g><g fill="#000000" fill-opacity="1"><g transform="translate(169.776239, 161.755713)"><g><path d="M 8.015625 -5.6875 C 8.160156 -5.445312 8.210938 -5.203125 8.171875 -4.953125 C 8.128906 -4.710938 7.945312 -4.578125 7.625 -4.546875 C 7.394531 -4.546875 7.175781 -4.609375 6.96875 -4.734375 C 6.769531 -4.867188 6.585938 -5.039062 6.421875 -5.25 C 6.128906 -5.25 5.738281 -5.070312 5.25 -4.71875 C 4.757812 -4.375 4.425781 -4.144531 4.25 -4.03125 C 3.925781 -3.800781 3.617188 -3.546875 3.328125 -3.265625 C 3.046875 -2.992188 2.757812 -2.710938 2.46875 -2.421875 C 1.226562 -1.097656 0.242188 0.34375 -0.484375 1.90625 C -0.648438 2.28125 -0.9375 2.378906 -1.34375 2.203125 C -1.75 2.035156 -2.101562 1.75 -2.40625 1.34375 C -2.707031 0.9375 -2.800781 0.585938 -2.6875 0.296875 C -2.226562 -0.992188 -1.742188 -2.269531 -1.234375 -3.53125 C -0.734375 -4.789062 -0.25 -6.070312 0.21875 -7.375 C 0.332031 -7.65625 0.546875 -7.757812 0.859375 -7.6875 C 1.179688 -7.625 1.5 -7.445312 1.8125 -7.15625 C 2.132812 -6.863281 2.351562 -6.5625 2.46875 -6.25 C 3.457031 -7 4.445312 -7.410156 5.4375 -7.484375 C 6.4375 -7.554688 7.296875 -6.957031 8.015625 -5.6875 Z M 8.015625 -5.6875 "/></g></g></g><g fill="#000000" fill-opacity="1"><g transform="translate(180.309735, 161.755713)"><g/></g></g><g fill="#000000" fill-opacity="1"><g transform="translate(196.651828, 161.755713)"><g><path d="M 5.078125 -5.71875 C 5.191406 -4.59375 5.09375 -3.488281 4.78125 -2.40625 C 4.476562 -1.320312 3.984375 -0.347656 3.296875 0.515625 C 2.660156 1.359375 1.882812 1.898438 0.96875 2.140625 C 0.0625 2.390625 -0.796875 2.066406 -1.609375 1.171875 C -2.328125 0.359375 -2.628906 -0.519531 -2.515625 -1.46875 C -2.398438 -2.425781 -2.023438 -3.351562 -1.390625 -4.25 C -0.753906 -5.144531 -0.0195312 -5.945312 0.8125 -6.65625 C 1.65625 -7.363281 2.425781 -7.890625 3.125 -8.234375 C 3.414062 -8.378906 3.738281 -8.320312 4.09375 -8.0625 C 4.457031 -7.800781 4.738281 -7.472656 4.9375 -7.078125 C 5.144531 -6.691406 5.144531 -6.382812 4.9375 -6.15625 C 5 -6.007812 5.046875 -5.863281 5.078125 -5.71875 Z M 2.125 -2.8125 C 2.382812 -3.394531 2.570312 -4.003906 2.6875 -4.640625 C 2.25 -4.265625 1.859375 -3.859375 1.515625 -3.421875 C 1.078125 -2.867188 0.71875 -2.273438 0.4375 -1.640625 C 0.34375 -1.503906 0.265625 -1.363281 0.203125 -1.21875 C 0.148438 -1.070312 0.0976562 -0.925781 0.046875 -0.78125 C 0.046875 -0.75 0.0351562 -0.675781 0.015625 -0.5625 C 0.00390625 -0.445312 -0.015625 -0.347656 -0.046875 -0.265625 C 0.128906 -0.410156 0.296875 -0.53125 0.453125 -0.625 C 0.609375 -0.726562 0.757812 -0.851562 0.90625 -1 C 1.394531 -1.550781 1.800781 -2.15625 2.125 -2.8125 Z M 2.125 -2.8125 "/></g></g></g><g fill="#000000" fill-opacity="1"><g transform="translate(204.671161, 161.755713)"><g><path d="M 5.640625 -1.734375 C 6.046875 -1.472656 6.289062 -1.144531 6.375 -0.75 C 6.457031 -0.363281 6.390625 -0.078125 6.171875 0.109375 C 5.960938 0.296875 5.597656 0.21875 5.078125 -0.125 C 4.640625 -0.382812 4.160156 -0.484375 3.640625 -0.421875 C 3.117188 -0.367188 2.597656 -0.257812 2.078125 -0.09375 C 2.710938 0.800781 3.046875 1.832031 3.078125 3 C 3.109375 4.175781 3.050781 5.34375 2.90625 6.5 C 2.695312 8.125 2.375 9.707031 1.9375 11.25 C 1.507812 12.800781 0.75 14.195312 -0.34375 15.4375 C -0.457031 15.582031 -0.613281 15.628906 -0.8125 15.578125 C -1.019531 15.535156 -1.195312 15.488281 -1.34375 15.4375 C -2.382812 14.800781 -3.117188 14 -3.546875 13.03125 C -3.984375 12.0625 -4.222656 11.007812 -4.265625 9.875 C -4.304688 8.75 -4.226562 7.613281 -4.03125 6.46875 C -3.832031 5.332031 -3.613281 4.257812 -3.375 3.25 C -2.832031 0.96875 -2.066406 -1.234375 -1.078125 -3.359375 C -0.0976562 -5.484375 1.023438 -7.53125 2.296875 -9.5 C 2.441406 -9.695312 2.648438 -9.75 2.921875 -9.65625 C 3.203125 -9.570312 3.476562 -9.398438 3.75 -9.140625 C 4.019531 -8.890625 4.21875 -8.609375 4.34375 -8.296875 C 4.476562 -7.992188 4.472656 -7.726562 4.328125 -7.5 C 3.296875 -5.882812 2.375 -4.238281 1.5625 -2.5625 C 2.25 -2.675781 2.925781 -2.675781 3.59375 -2.5625 C 4.257812 -2.445312 4.941406 -2.171875 5.640625 -1.734375 Z M 0.828125 3.46875 C 0.847656 3.0625 0.875 2.503906 0.90625 1.796875 C 0.9375 1.085938 0.734375 0.585938 0.296875 0.296875 C 0.179688 0.617188 0.0625 0.953125 -0.0625 1.296875 C -0.195312 1.648438 -0.320312 2 -0.4375 2.34375 C -0.75 3.351562 -1.019531 4.367188 -1.25 5.390625 C -1.488281 6.421875 -1.664062 7.457031 -1.78125 8.5 C -1.8125 8.757812 -1.859375 9.148438 -1.921875 9.671875 C -1.992188 10.191406 -2.03125 10.738281 -2.03125 11.3125 C -2.03125 11.894531 -1.960938 12.390625 -1.828125 12.796875 C -1.210938 11.953125 -0.738281 11.050781 -0.40625 10.09375 C -0.0703125 9.144531 0.175781 8.148438 0.34375 7.109375 C 0.457031 6.535156 0.550781 5.9375 0.625 5.3125 C 0.695312 4.6875 0.765625 4.070312 0.828125 3.46875 Z M 0.828125 3.46875 "/></g></g></g><g fill="#000000" fill-opacity="1"><g transform="translate(213.73083, 161.755713)"><g/></g></g><g fill="#000000" fill-opacity="1"><g transform="translate(230.072934, 161.755713)"><g><path d="M 20.71875 -4.421875 C 20.894531 -4.617188 21.132812 -4.664062 21.4375 -4.5625 C 21.738281 -4.46875 22.019531 -4.289062 22.28125 -4.03125 C 22.539062 -3.769531 22.726562 -3.488281 22.84375 -3.1875 C 22.96875 -2.882812 22.925781 -2.628906 22.71875 -2.421875 C 21.644531 -1.242188 20.5 -0.117188 19.28125 0.953125 C 18.070312 2.023438 16.816406 3.035156 15.515625 3.984375 C 14.421875 4.765625 13.25 5.566406 12 6.390625 C 10.757812 7.210938 9.476562 7.8125 8.15625 8.1875 C 7.113281 8.507812 6.078125 8.5625 5.046875 8.34375 C 4.023438 8.125 3.164062 7.566406 2.46875 6.671875 C 1.914062 5.984375 1.566406 5.195312 1.421875 4.3125 C 1.285156 3.425781 1.242188 2.53125 1.296875 1.625 C 1.359375 0.71875 1.460938 -0.140625 1.609375 -0.953125 C 2.035156 -3.785156 2.847656 -6.546875 4.046875 -9.234375 C 5.253906 -11.921875 6.679688 -14.4375 8.328125 -16.78125 C 9.109375 -17.90625 9.945312 -19.007812 10.84375 -20.09375 C 11.738281 -21.175781 12.71875 -22.15625 13.78125 -23.03125 C 14.394531 -23.488281 15.0625 -23.925781 15.78125 -24.34375 C 16.5 -24.757812 17.242188 -25.003906 18.015625 -25.078125 C 18.785156 -25.148438 19.53125 -24.898438 20.25 -24.328125 C 21.144531 -23.578125 21.664062 -22.671875 21.8125 -21.609375 C 21.957031 -20.554688 21.957031 -19.492188 21.8125 -18.421875 C 21.40625 -15.503906 20.507812 -12.71875 19.125 -10.0625 C 18.976562 -9.769531 18.757812 -9.648438 18.46875 -9.703125 C 18.175781 -9.765625 17.882812 -9.910156 17.59375 -10.140625 C 17.3125 -10.378906 17.085938 -10.640625 16.921875 -10.921875 C 16.765625 -11.210938 16.742188 -11.472656 16.859375 -11.703125 C 17.503906 -12.859375 18.039062 -14.054688 18.46875 -15.296875 C 18.90625 -16.546875 19.222656 -17.820312 19.421875 -19.125 C 19.515625 -19.644531 19.59375 -20.191406 19.65625 -20.765625 C 19.726562 -21.347656 19.707031 -21.898438 19.59375 -22.421875 C 19.539062 -22.648438 19.5 -22.773438 19.46875 -22.796875 C 19.4375 -22.828125 19.304688 -22.84375 19.078125 -22.84375 C 18.992188 -22.820312 18.867188 -22.78125 18.703125 -22.71875 C 18.546875 -22.664062 18.425781 -22.625 18.34375 -22.59375 C 18.019531 -22.445312 17.722656 -22.289062 17.453125 -22.125 C 17.179688 -21.96875 16.914062 -21.804688 16.65625 -21.640625 C 14.863281 -20.421875 13.28125 -18.894531 11.90625 -17.0625 C 10.53125 -15.226562 9.320312 -13.382812 8.28125 -11.53125 C 7.207031 -9.59375 6.257812 -7.5625 5.4375 -5.4375 C 4.613281 -3.3125 4.054688 -1.148438 3.765625 1.046875 C 3.710938 1.648438 3.664062 2.253906 3.625 2.859375 C 3.582031 3.460938 3.585938 4.070312 3.640625 4.6875 C 3.703125 5.257812 3.847656 5.664062 4.078125 5.90625 C 4.304688 6.15625 4.722656 6.253906 5.328125 6.203125 C 6.335938 6.109375 7.320312 5.796875 8.28125 5.265625 C 9.238281 4.734375 10.132812 4.207031 10.96875 3.6875 C 12.757812 2.5625 14.472656 1.320312 16.109375 -0.03125 C 17.742188 -1.394531 19.28125 -2.859375 20.71875 -4.421875 Z M 20.71875 -4.421875 "/></g></g></g><g fill="#000000" fill-opacity="1"><g transform="translate(251.096576, 161.755713)"><g><path d="M 8.015625 -5.6875 C 8.160156 -5.445312 8.210938 -5.203125 8.171875 -4.953125 C 8.128906 -4.710938 7.945312 -4.578125 7.625 -4.546875 C 7.394531 -4.546875 7.175781 -4.609375 6.96875 -4.734375 C 6.769531 -4.867188 6.585938 -5.039062 6.421875 -5.25 C 6.128906 -5.25 5.738281 -5.070312 5.25 -4.71875 C 4.757812 -4.375 4.425781 -4.144531 4.25 -4.03125 C 3.925781 -3.800781 3.617188 -3.546875 3.328125 -3.265625 C 3.046875 -2.992188 2.757812 -2.710938 2.46875 -2.421875 C 1.226562 -1.097656 0.242188 0.34375 -0.484375 1.90625 C -0.648438 2.28125 -0.9375 2.378906 -1.34375 2.203125 C -1.75 2.035156 -2.101562 1.75 -2.40625 1.34375 C -2.707031 0.9375 -2.800781 0.585938 -2.6875 0.296875 C -2.226562 -0.992188 -1.742188 -2.269531 -1.234375 -3.53125 C -0.734375 -4.789062 -0.25 -6.070312 0.21875 -7.375 C 0.332031 -7.65625 0.546875 -7.757812 0.859375 -7.6875 C 1.179688 -7.625 1.5 -7.445312 1.8125 -7.15625 C 2.132812 -6.863281 2.351562 -6.5625 2.46875 -6.25 C 3.457031 -7 4.445312 -7.410156 5.4375 -7.484375 C 6.4375 -7.554688 7.296875 -6.957031 8.015625 -5.6875 Z M 8.015625 -5.6875 "/></g></g></g><g fill="#000000" fill-opacity="1"><g transform="translate(261.630061, 161.755713)"><g><path d="M 11.265625 -5.421875 C 11.554688 -5.648438 11.875 -5.6875 12.21875 -5.53125 C 12.570312 -5.375 12.820312 -5.132812 12.96875 -4.8125 C 13.113281 -4.488281 13.039062 -4.242188 12.75 -4.078125 C 11.039062 -2.953125 9.28125 -1.8125 7.46875 -0.65625 C 5.664062 0.5 3.796875 1.425781 1.859375 2.125 C 1.140625 2.382812 0.4375 2.492188 -0.25 2.453125 C -0.945312 2.410156 -1.554688 2.054688 -2.078125 1.390625 C -2.597656 0.691406 -2.78125 -0.0820312 -2.625 -0.9375 C -2.46875 -1.789062 -2.140625 -2.601562 -1.640625 -3.375 C -1.148438 -4.15625 -0.660156 -4.804688 -0.171875 -5.328125 C 0.265625 -5.816406 0.785156 -6.265625 1.390625 -6.671875 C 1.992188 -7.078125 2.617188 -7.304688 3.265625 -7.359375 C 3.921875 -7.421875 4.523438 -7.148438 5.078125 -6.546875 C 5.566406 -6.054688 5.765625 -5.5625 5.671875 -5.0625 C 5.585938 -4.570312 5.320312 -4.117188 4.875 -3.703125 C 4.425781 -3.285156 3.898438 -2.898438 3.296875 -2.546875 C 2.691406 -2.203125 2.101562 -1.898438 1.53125 -1.640625 C 0.96875 -1.378906 0.53125 -1.164062 0.21875 -1 C 0.0703125 -0.675781 -0.0390625 -0.359375 -0.125 -0.046875 C 0.507812 -0.128906 1.332031 -0.359375 2.34375 -0.734375 C 3.351562 -1.109375 4.425781 -1.570312 5.5625 -2.125 C 6.707031 -2.675781 7.785156 -3.238281 8.796875 -3.8125 C 9.804688 -4.394531 10.628906 -4.929688 11.265625 -5.421875 Z M 11.265625 -5.421875 "/></g></g></g><g fill="#000000" fill-opacity="1"><g transform="translate(273.117205, 161.755713)"><g><path d="M 16.265625 -5.546875 C 16.546875 -5.773438 16.851562 -5.8125 17.1875 -5.65625 C 17.519531 -5.5 17.769531 -5.257812 17.9375 -4.9375 C 18.113281 -4.625 18.078125 -4.351562 17.828125 -4.125 C 16.804688 -3.226562 15.78125 -2.34375 14.75 -1.46875 C 13.726562 -0.601562 12.640625 0.160156 11.484375 0.828125 C 10.960938 1.140625 10.390625 1.429688 9.765625 1.703125 C 9.148438 1.984375 8.523438 2.082031 7.890625 2 C 7.222656 1.9375 6.644531 1.671875 6.15625 1.203125 C 5.664062 0.742188 5.316406 0.195312 5.109375 -0.4375 C 4.992188 -0.84375 4.953125 -1.234375 4.984375 -1.609375 C 5.015625 -1.984375 5.085938 -2.34375 5.203125 -2.6875 C 4.046875 -1.9375 2.945312 -1.078125 1.90625 -0.109375 C 0.863281 0.859375 -0.316406 1.601562 -1.640625 2.125 C -1.929688 2.238281 -2.242188 2.1875 -2.578125 1.96875 C -2.910156 1.75 -3.175781 1.46875 -3.375 1.125 C -3.582031 0.78125 -3.65625 0.460938 -3.59375 0.171875 C -3.3125 -1.128906 -2.816406 -2.394531 -2.109375 -3.625 C -1.398438 -4.851562 -0.507812 -5.867188 0.5625 -6.671875 C 1.425781 -7.304688 2.34375 -7.554688 3.3125 -7.421875 C 4.28125 -7.296875 5.082031 -6.832031 5.71875 -6.03125 C 5.945312 -6.113281 6.179688 -6.195312 6.421875 -6.28125 C 6.703125 -6.34375 7.035156 -6.242188 7.421875 -5.984375 C 7.648438 -5.804688 7.863281 -5.59375 8.0625 -5.34375 C 8.269531 -5.101562 8.382812 -4.867188 8.40625 -4.640625 C 8.4375 -4.492188 8.425781 -4.363281 8.375 -4.25 C 8.34375 -3.90625 8.269531 -3.570312 8.15625 -3.25 C 8.039062 -2.9375 7.921875 -2.601562 7.796875 -2.25 C 7.679688 -1.9375 7.59375 -1.617188 7.53125 -1.296875 C 7.476562 -0.984375 7.410156 -0.648438 7.328125 -0.296875 C 7.359375 -0.296875 7.378906 -0.296875 7.390625 -0.296875 C 7.410156 -0.296875 7.429688 -0.296875 7.453125 -0.296875 C 8.085938 -0.390625 8.820312 -0.632812 9.65625 -1.03125 C 10.5 -1.4375 11.347656 -1.921875 12.203125 -2.484375 C 13.054688 -3.054688 13.84375 -3.613281 14.5625 -4.15625 C 15.289062 -4.707031 15.859375 -5.171875 16.265625 -5.546875 Z M 0.609375 -2.640625 C 1.179688 -3.109375 1.742188 -3.566406 2.296875 -4.015625 C 2.847656 -4.460938 3.425781 -4.875 4.03125 -5.25 C 4 -5.25 3.984375 -5.25 3.984375 -5.25 C 3.929688 -5.25 3.859375 -5.238281 3.765625 -5.21875 C 3.679688 -5.207031 3.597656 -5.1875 3.515625 -5.15625 C 3.285156 -5.101562 3.0625 -5.003906 2.84375 -4.859375 C 2.625 -4.710938 2.425781 -4.566406 2.25 -4.421875 C 1.9375 -4.160156 1.648438 -3.882812 1.390625 -3.59375 C 1.128906 -3.3125 0.894531 -3.023438 0.6875 -2.734375 C 0.664062 -2.703125 0.65625 -2.675781 0.65625 -2.65625 C 0.65625 -2.644531 0.640625 -2.640625 0.609375 -2.640625 Z M 0.609375 -2.640625 "/></g></g></g><g fill="#000000" fill-opacity="1"><g transform="translate(289.632699, 161.755713)"><g><path d="M 21.546875 -16.65625 C 21.804688 -16.507812 22.070312 -16.28125 22.34375 -15.96875 C 22.625 -15.664062 22.75 -15.359375 22.71875 -15.046875 C 22.6875 -14.722656 22.554688 -14.539062 22.328125 -14.5 C 22.097656 -14.457031 21.851562 -14.507812 21.59375 -14.65625 C 20.46875 -15.226562 19.28125 -15.613281 18.03125 -15.8125 C 16.789062 -16.019531 15.550781 -16.171875 14.3125 -16.265625 C 11.851562 -16.398438 9.378906 -16.457031 6.890625 -16.4375 C 6.859375 -16.4375 6.828125 -16.4375 6.796875 -16.4375 C 6.773438 -16.4375 6.765625 -16.4375 6.765625 -16.4375 C 5.492188 -13.632812 4.328125 -10.785156 3.265625 -7.890625 C 2.210938 -5.003906 1.375 -2.070312 0.75 0.90625 C 0.132812 3.882812 -0.144531 6.921875 -0.09375 10.015625 C -0.09375 10.359375 -0.207031 10.546875 -0.4375 10.578125 C -0.664062 10.609375 -0.929688 10.53125 -1.234375 10.34375 C -1.535156 10.15625 -1.800781 9.921875 -2.03125 9.640625 C -2.269531 9.367188 -2.390625 9.101562 -2.390625 8.84375 C -2.472656 4.445312 -1.90625 0.15625 -0.6875 -4.03125 C 0.519531 -8.21875 1.992188 -12.304688 3.734375 -16.296875 C -0.429688 -16.066406 -4.550781 -15.5625 -8.625 -14.78125 C -8.882812 -14.726562 -9.164062 -14.800781 -9.46875 -15 C -9.769531 -15.207031 -10.03125 -15.453125 -10.25 -15.734375 C -10.46875 -16.023438 -10.59375 -16.300781 -10.625 -16.5625 C -10.65625 -16.820312 -10.539062 -16.984375 -10.28125 -17.046875 C -7.789062 -17.503906 -5.285156 -17.875 -2.765625 -18.15625 C -0.253906 -18.445312 2.269531 -18.625 4.8125 -18.6875 C 5.269531 -19.695312 5.726562 -20.703125 6.1875 -21.703125 C 6.65625 -22.703125 7.132812 -23.691406 7.625 -24.671875 C 7.738281 -24.929688 7.941406 -25.039062 8.234375 -25 C 8.523438 -24.957031 8.8125 -24.816406 9.09375 -24.578125 C 9.382812 -24.347656 9.609375 -24.085938 9.765625 -23.796875 C 9.929688 -23.515625 9.957031 -23.257812 9.84375 -23.03125 C 9.5 -22.300781 9.160156 -21.582031 8.828125 -20.875 C 8.492188 -20.164062 8.148438 -19.46875 7.796875 -18.78125 C 9.335938 -18.78125 10.910156 -18.75 12.515625 -18.6875 C 14.117188 -18.625 15.691406 -18.441406 17.234375 -18.140625 C 18.785156 -17.835938 20.222656 -17.34375 21.546875 -16.65625 Z M 21.546875 -16.65625 "/></g></g></g><g fill="#000000" fill-opacity="1"><g transform="translate(295.614685, 161.755713)"><g><path d="M 8.1875 -5.375 C 8.445312 -5.601562 8.742188 -5.648438 9.078125 -5.515625 C 9.410156 -5.390625 9.648438 -5.175781 9.796875 -4.875 C 9.941406 -4.570312 9.882812 -4.304688 9.625 -4.078125 C 8.925781 -3.492188 8.207031 -2.921875 7.46875 -2.359375 C 6.738281 -1.796875 6 -1.253906 5.25 -0.734375 C 4.613281 -0.328125 3.945312 0.0859375 3.25 0.515625 C 2.5625 0.953125 1.851562 1.257812 1.125 1.4375 C 0.550781 1.519531 0.015625 1.429688 -0.484375 1.171875 C -0.992188 0.910156 -1.410156 0.539062 -1.734375 0.0625 C -2.054688 -0.414062 -2.21875 -0.941406 -2.21875 -1.515625 C -2.238281 -2.472656 -1.972656 -3.460938 -1.421875 -4.484375 C -0.878906 -5.515625 -0.375 -6.429688 0.09375 -7.234375 C 0.257812 -7.492188 0.488281 -7.59375 0.78125 -7.53125 C 1.070312 -7.476562 1.359375 -7.335938 1.640625 -7.109375 C 1.929688 -6.878906 2.148438 -6.617188 2.296875 -6.328125 C 2.441406 -6.035156 2.457031 -5.789062 2.34375 -5.59375 C 1.96875 -4.957031 1.617188 -4.3125 1.296875 -3.65625 C 0.984375 -3.007812 0.695312 -2.351562 0.4375 -1.6875 C 0.375 -1.519531 0.300781 -1.332031 0.21875 -1.125 C 0.820312 -1.207031 1.613281 -1.476562 2.59375 -1.9375 C 3.582031 -2.40625 4.585938 -2.953125 5.609375 -3.578125 C 6.640625 -4.203125 7.5 -4.800781 8.1875 -5.375 Z M 4.296875 -9.890625 C 4.117188 -9.535156 3.820312 -9.445312 3.40625 -9.625 C 2.988281 -9.800781 2.617188 -10.082031 2.296875 -10.46875 C 1.984375 -10.863281 1.894531 -11.21875 2.03125 -11.53125 C 2.289062 -12.050781 2.476562 -12.429688 2.59375 -12.671875 C 2.71875 -12.921875 2.78125 -13.046875 2.78125 -13.046875 C 2.945312 -13.304688 3.175781 -13.414062 3.46875 -13.375 C 3.757812 -13.332031 4.039062 -13.195312 4.3125 -12.96875 C 4.582031 -12.738281 4.796875 -12.476562 4.953125 -12.1875 C 5.117188 -11.894531 5.144531 -11.632812 5.03125 -11.40625 C 5.03125 -11.40625 4.984375 -11.3125 4.890625 -11.125 C 4.804688 -10.9375 4.609375 -10.523438 4.296875 -9.890625 Z M 4.296875 -9.890625 "/></g></g></g><g fill="#000000" fill-opacity="1"><g transform="translate(304.110847, 161.755713)"><g><path d="M 5.078125 -5.71875 C 5.191406 -4.59375 5.09375 -3.488281 4.78125 -2.40625 C 4.476562 -1.320312 3.984375 -0.347656 3.296875 0.515625 C 2.660156 1.359375 1.882812 1.898438 0.96875 2.140625 C 0.0625 2.390625 -0.796875 2.066406 -1.609375 1.171875 C -2.328125 0.359375 -2.628906 -0.519531 -2.515625 -1.46875 C -2.398438 -2.425781 -2.023438 -3.351562 -1.390625 -4.25 C -0.753906 -5.144531 -0.0195312 -5.945312 0.8125 -6.65625 C 1.65625 -7.363281 2.425781 -7.890625 3.125 -8.234375 C 3.414062 -8.378906 3.738281 -8.320312 4.09375 -8.0625 C 4.457031 -7.800781 4.738281 -7.472656 4.9375 -7.078125 C 5.144531 -6.691406 5.144531 -6.382812 4.9375 -6.15625 C 5 -6.007812 5.046875 -5.863281 5.078125 -5.71875 Z M 2.125 -2.8125 C 2.382812 -3.394531 2.570312 -4.003906 2.6875 -4.640625 C 2.25 -4.265625 1.859375 -3.859375 1.515625 -3.421875 C 1.078125 -2.867188 0.71875 -2.273438 0.4375 -1.640625 C 0.34375 -1.503906 0.265625 -1.363281 0.203125 -1.21875 C 0.148438 -1.070312 0.0976562 -0.925781 0.046875 -0.78125 C 0.046875 -0.75 0.0351562 -0.675781 0.015625 -0.5625 C 0.00390625 -0.445312 -0.015625 -0.347656 -0.046875 -0.265625 C 0.128906 -0.410156 0.296875 -0.53125 0.453125 -0.625 C 0.609375 -0.726562 0.757812 -0.851562 0.90625 -1 C 1.394531 -1.550781 1.800781 -2.15625 2.125 -2.8125 Z M 2.125 -2.8125 "/></g></g></g><g fill="#000000" fill-opacity="1"><g transform="translate(312.13018, 161.755713)"><g><path d="M 17.34375 -5.59375 C 17.664062 -5.738281 17.953125 -5.707031 18.203125 -5.5 C 18.460938 -5.300781 18.613281 -5.050781 18.65625 -4.75 C 18.707031 -4.445312 18.546875 -4.207031 18.171875 -4.03125 C 17.066406 -3.476562 15.976562 -2.890625 14.90625 -2.265625 C 13.84375 -1.648438 12.773438 -1.007812 11.703125 -0.34375 C 11.066406 0.0625 10.382812 0.5 9.65625 0.96875 C 8.9375 1.445312 8.191406 1.789062 7.421875 2 C 6.660156 2.164062 6 1.957031 5.4375 1.375 C 4.875 0.800781 4.648438 0.140625 4.765625 -0.609375 C 4.828125 -1.035156 4.9375 -1.457031 5.09375 -1.875 C 5.25 -2.300781 5.429688 -2.734375 5.640625 -3.171875 C 3.148438 -1.773438 0.984375 0.0195312 -0.859375 2.21875 C -1.097656 2.5 -1.394531 2.53125 -1.75 2.3125 C -2.113281 2.101562 -2.425781 1.796875 -2.6875 1.390625 C -2.945312 0.984375 -3.046875 0.648438 -2.984375 0.390625 C -2.703125 -0.703125 -2.3125 -1.773438 -1.8125 -2.828125 C -1.320312 -3.890625 -0.789062 -4.925781 -0.21875 -5.9375 C -0.0703125 -6.195312 0.140625 -6.304688 0.421875 -6.265625 C 0.710938 -6.222656 1.003906 -6.082031 1.296875 -5.84375 C 1.585938 -5.613281 1.804688 -5.347656 1.953125 -5.046875 C 2.097656 -4.742188 2.113281 -4.492188 2 -4.296875 C 2 -4.265625 1.988281 -4.234375 1.96875 -4.203125 C 1.957031 -4.171875 1.9375 -4.144531 1.90625 -4.125 C 3.875 -5.476562 6 -6.503906 8.28125 -7.203125 C 8.601562 -7.316406 8.9375 -7.25 9.28125 -7 C 9.625 -6.757812 9.890625 -6.457031 10.078125 -6.09375 C 10.265625 -5.726562 10.273438 -5.390625 10.109375 -5.078125 C 9.722656 -4.460938 9.363281 -3.84375 9.03125 -3.21875 C 8.707031 -2.601562 8.382812 -1.976562 8.0625 -1.34375 C 9.5625 -2.09375 11.109375 -2.8125 12.703125 -3.5 C 14.296875 -4.195312 15.84375 -4.894531 17.34375 -5.59375 Z M 17.34375 -5.59375 "/></g></g></g><g fill="#000000" fill-opacity="1"><g transform="translate(329.604576, 161.755713)"><g/></g></g></svg>